<?xml version="1.0" standalone="no"?>
<!DOCTYPE svg PUBLIC "-//W3C//DTD SVG 20010904//EN"
 "http://www.w3.org/TR/2001/REC-SVG-20010904/DTD/svg10.dtd">
<svg version="1.0" xmlns="http://www.w3.org/2000/svg"
 width="728.000000pt" height="991.000000pt" viewBox="0 0 728.000000 991.000000"
 preserveAspectRatio="xMidYMid meet">

<g transform="translate(0.000000,991.000000) scale(0.100000,-0.100000)"
fill="#000000" stroke="none">
<path d="M2565 8608 c-80 -7 -287 -59 -352 -88 -25 -11 -57 -30 -72 -42 -15
-13 -56 -40 -93 -62 -69 -40 -187 -134 -277 -220 -87 -83 -226 -262 -279 -360
-53 -95 -110 -267 -138 -411 -30 -160 -14 -415 39 -592 50 -166 249 -516 360
-633 51 -54 147 -169 147 -178 0 -4 7 -39 15 -77 11 -51 18 -178 25 -465 8
-343 12 -418 34 -565 59 -391 155 -754 230 -873 14 -23 26 -44 26 -48 0 -3
-11 -15 -25 -26 -14 -11 -46 -46 -71 -79 -46 -59 -46 -60 -28 -82 40 -46 374
-376 454 -448 l85 -76 -47 -52 c-57 -63 -98 -134 -98 -170 0 -21 20 -44 95
-111 52 -47 95 -87 95 -91 0 -3 -19 -55 -41 -115 -79 -207 -133 -422 -169
-669 -30 -205 -30 -608 0 -745 12 -52 25 -122 30 -155 16 -115 31 -163 69
-222 69 -106 98 -109 83 -10 -9 56 -2 73 16 41 6 -11 17 -15 31 -11 17 4 24
-1 36 -29 12 -30 46 -54 75 -54 5 0 14 19 20 43 14 51 60 147 72 147 4 0 8
-24 8 -53 0 -40 5 -58 19 -71 17 -16 20 -15 52 21 19 21 48 59 64 85 17 26 33
47 36 48 3 0 9 -23 12 -52 11 -93 58 -231 123 -366 78 -158 120 -207 173 -198
19 3 39 10 45 16 8 8 10 91 8 263 -4 255 9 450 31 497 23 47 188 75 281 47 30
-9 41 -19 47 -40 4 -15 10 -121 13 -235 16 -552 15 -536 63 -548 59 -15 122
66 193 246 41 103 110 343 110 382 0 16 9 12 53 -27 77 -70 94 -80 112 -65 8
7 15 23 15 36 0 39 28 28 58 -21 29 -48 55 -57 72 -25 16 30 26 25 55 -25 34
-57 85 -102 152 -132 86 -40 114 -15 74 65 -22 45 -34 92 -23 92 4 0 16 -19
27 -42 11 -24 27 -43 35 -43 23 0 38 70 39 175 l1 95 65 -1 c56 -1 73 -6 122
-36 154 -95 273 -140 273 -103 0 23 -62 109 -206 285 -66 80 -146 185 -178
234 l-60 89 -7 176 c-7 162 -24 345 -34 361 -3 4 -9 48 -15 97 -17 157 -69
308 -211 621 -112 244 -226 438 -323 547 -20 22 -36 43 -36 46 0 4 27 9 59 13
33 4 111 20 173 36 249 64 353 115 463 225 118 118 167 198 221 356 74 220
121 439 160 744 18 147 46 747 38 830 -6 69 11 290 26 331 13 32 38 63 139
169 152 161 265 321 350 494 66 135 92 246 111 464 25 292 -64 666 -212 898
-45 70 -162 194 -257 271 -71 58 -232 148 -265 148 -8 0 -38 9 -67 20 -68 27
-293 53 -389 45 -103 -9 -249 -34 -274 -47 -25 -13 -45 -38 -46 -55 0 -22 43
-41 160 -72 141 -36 283 -87 313 -112 l22 -18 -35 -1 c-47 -2 -150 -41 -164
-62 -20 -33 15 -69 128 -128 119 -63 144 -84 228 -195 103 -136 149 -246 183
-440 16 -89 17 -113 6 -220 -7 -66 -19 -148 -27 -182 -31 -140 -156 -347 -280
-462 -93 -87 -137 -113 -229 -137 -65 -18 -106 -19 -585 -14 -645 6 -1344 6
-1605 0 l-200 -5 -78 39 c-148 74 -239 196 -317 426 -31 92 -32 97 -28 235 4
129 8 148 42 250 80 236 230 494 348 598 35 31 95 77 134 102 182 117 205 141
182 190 -18 40 -57 55 -144 55 -66 0 -75 2 -64 15 22 27 148 83 280 125 115
36 130 43 136 66 8 33 -14 57 -69 74 -59 18 -169 26 -252 18z m208 -56 c26 -4
48 -11 49 -17 1 -5 -36 -18 -83 -27 -122 -26 -164 -42 -251 -99 -85 -56 -101
-83 -75 -123 17 -25 54 -36 126 -36 95 0 118 -22 53 -52 -54 -26 -157 -98
-241 -170 -158 -135 -333 -389 -396 -573 -49 -145 -66 -458 -32 -585 10 -35
23 -71 30 -80 7 -8 30 -49 49 -90 68 -138 172 -241 327 -322 l65 -33 205 0
c113 0 339 6 501 14 224 11 396 12 715 5 570 -11 901 -10 950 3 133 37 204 80
317 194 134 135 221 289 275 489 14 51 18 105 18 245 0 263 -21 345 -134 515
-121 182 -244 300 -341 327 -103 28 -67 63 65 63 41 0 77 5 80 10 11 18 -15
76 -43 97 -67 49 -254 119 -386 143 -41 8 -63 16 -55 20 8 4 67 16 133 25 148
22 291 16 429 -19 111 -29 182 -62 317 -150 110 -72 171 -141 292 -328 150
-233 191 -387 192 -738 0 -181 -2 -214 -22 -286 -75 -278 -180 -451 -415 -688
-86 -85 -133 -141 -142 -166 -24 -67 -36 -182 -46 -420 -5 -129 -14 -332 -19
-450 -21 -523 -95 -919 -217 -1165 -83 -168 -217 -312 -348 -376 -131 -63
-357 -112 -665 -144 -157 -17 -568 -20 -685 -5 -526 65 -602 81 -777 171 -66
34 -103 63 -178 138 -100 100 -143 169 -204 323 -115 292 -200 920 -211 1555
-3 202 -8 270 -19 298 -15 34 -161 220 -206 260 -46 41 -160 194 -199 266 -96
179 -141 362 -148 609 -8 259 25 415 137 645 46 95 75 139 138 211 177 202
422 387 588 444 199 70 345 91 487 72z m-478 -4662 c13 -25 13 -30 1 -30 -29
0 -26 -32 6 -73 18 -23 36 -43 40 -45 5 -2 8 -8 8 -13 0 -5 13 -22 30 -37 16
-16 26 -33 22 -37 -4 -5 1 -5 11 -2 19 7 24 -9 5 -16 -8 -3 -6 -6 5 -6 11 -1
17 -9 17 -27 l0 -25 -27 19 c-16 11 -75 64 -132 119 -100 94 -104 100 -92 123
13 25 70 79 83 80 4 0 14 -13 23 -30z m199 -322 c-3 -4 1 -8 9 -8 18 0 49 -34
40 -44 -4 -4 1 -4 11 0 13 5 17 3 14 -6 -4 -13 43 -70 59 -70 4 0 1 5 -7 11
-10 7 -11 9 -2 7 8 -2 13 -8 13 -13 0 -15 41 -55 56 -55 7 0 12 -3 11 -7 -4
-22 16 -43 36 -37 21 6 21 6 1 -10 -11 -9 -15 -16 -10 -15 22 3 33 -2 38 -15
7 -16 -22 -96 -34 -96 -4 0 -11 -15 -15 -32 l-8 -33 -7 40 c-6 35 -4 43 22 70
l28 30 -140 129 c-92 85 -138 134 -135 143 4 8 6 22 6 31 0 14 2 15 9 2 6 -8
7 -18 5 -22z m415 -27 c10 -6 10 -10 1 -16 -7 -4 -19 0 -28 9 -14 13 -14 16
-2 16 8 0 21 -4 29 -9z m-219 -121 c13 -8 13 -10 -2 -10 -9 0 -20 5 -23 10 -8
13 5 13 25 0z m40 -50 c0 -5 -2 -10 -4 -10 -3 0 -8 5 -11 10 -3 6 -1 10 4 10
6 0 11 -4 11 -10z m-70 -247 c0 -18 -4 -33 -10 -33 -12 0 -43 -60 -35 -68 9
-9 25 20 18 32 -3 5 -1 6 5 2 6 -3 13 2 15 11 4 15 5 14 6 -3 0 -11 -10 -31
-24 -44 -14 -13 -25 -19 -25 -13 0 5 -11 15 -24 22 -20 11 -23 18 -16 42 5 15
23 46 41 69 36 44 49 40 49 -17z m47 -56 c1 -29 1 -30 -8 -9 -5 13 -7 28 -3
33 8 14 9 12 11 -24z m17 -128 c-8 -14 -24 -10 -24 6 0 9 6 12 15 9 8 -4 12
-10 9 -15z m2195 -1425 c12 -20 35 -52 52 -72 24 -29 31 -48 34 -92 l4 -55
-20 28 c-12 15 -26 24 -31 21 -7 -4 -8 -2 -4 5 4 6 0 18 -9 27 -15 15 -15 14
-9 -12 9 -39 14 -45 26 -38 7 5 8 2 3 -6 -4 -7 -2 -16 6 -21 8 -5 9 -9 3 -9
-21 0 -38 31 -55 99 -20 80 -33 161 -26 161 3 0 15 -16 26 -36z m211 -276 c22
-31 40 -59 40 -62 0 -4 -24 9 -108 59 -18 11 -29 76 -16 96 8 13 21 -1 84 -93z"/>
<path d="M4450 5073 c-100 -17 -232 -85 -297 -154 -121 -129 -150 -405 -62
-582 32 -64 107 -159 153 -194 68 -52 155 -76 276 -77 98 -1 110 1 170 30 79
37 125 76 185 156 55 73 82 158 91 281 8 108 -12 223 -51 302 -59 119 -197
214 -342 235 -70 10 -81 10 -123 3z"/>
<path d="M2698 5036 c-69 -20 -131 -52 -194 -102 -64 -49 -92 -86 -137 -182
-30 -64 -32 -73 -32 -187 0 -106 3 -130 29 -205 51 -150 121 -234 244 -293 84
-39 199 -55 277 -38 75 17 203 82 249 127 62 60 105 136 121 214 55 261 -43
511 -248 632 -68 41 -74 43 -166 45 -58 1 -115 -3 -143 -11z"/>
</g>
</svg>
