<?xml version="1.0" standalone="no"?>
<!DOCTYPE svg PUBLIC "-//W3C//DTD SVG 20010904//EN"
 "http://www.w3.org/TR/2001/REC-SVG-20010904/DTD/svg10.dtd">
<svg version="1.0" xmlns="http://www.w3.org/2000/svg"
 width="894.000000pt" height="977.000000pt" viewBox="0 0 894.000000 977.000000"
 preserveAspectRatio="xMidYMid meet">

<g transform="translate(0.000000,977.000000) scale(0.100000,-0.100000)"
fill="#000000" stroke="none">
<path d="M2366 9741 c-3 -4 -40 -11 -83 -15 -43 -4 -82 -11 -88 -16 -5 -4 -44
-15 -85 -24 -94 -19 -206 -49 -243 -64 -16 -7 -33 -12 -38 -12 -6 0 -35 -11
-65 -25 -30 -14 -61 -25 -68 -25 -7 0 -19 -7 -26 -15 -6 -8 -21 -17 -33 -21
-12 -4 -42 -23 -67 -44 -25 -20 -56 -42 -70 -48 -29 -14 -35 -17 -148 -90 -46
-30 -121 -85 -167 -123 -46 -38 -88 -69 -94 -69 -5 0 -14 -6 -18 -14 -4 -7
-35 -36 -68 -63 -97 -81 -208 -195 -327 -333 -120 -140 -188 -226 -188 -237 0
-7 -4 -13 -8 -13 -10 0 -88 -117 -112 -166 -8 -17 -20 -37 -26 -45 -30 -37
-94 -174 -122 -261 -17 -53 -35 -105 -40 -115 -25 -49 -75 -241 -97 -368 -7
-44 -18 -93 -24 -110 -5 -16 -13 -69 -16 -117 -4 -49 -11 -90 -16 -94 -12 -7
-12 -181 0 -188 5 -3 12 -68 16 -143 3 -76 13 -165 20 -198 7 -33 16 -87 20
-120 4 -33 12 -68 17 -77 5 -10 13 -44 19 -75 6 -32 14 -62 18 -68 5 -5 14
-32 21 -60 8 -27 20 -61 27 -75 7 -14 13 -29 13 -33 0 -9 45 -111 60 -137 5
-8 45 -87 90 -175 45 -88 92 -178 105 -200 14 -22 31 -55 40 -72 8 -18 20 -33
25 -33 6 0 10 -5 10 -12 0 -6 21 -43 47 -82 25 -39 57 -88 71 -108 14 -21 29
-38 33 -38 5 0 9 -5 9 -11 0 -13 82 -120 127 -168 18 -19 33 -40 33 -46 0 -7
7 -18 15 -25 8 -7 15 -20 15 -29 0 -17 50 -61 68 -61 6 0 39 -32 75 -71 53
-57 68 -81 76 -121 6 -27 11 -57 11 -66 0 -10 5 -23 10 -28 6 -6 15 -48 21
-95 5 -46 15 -118 21 -159 6 -41 14 -343 18 -670 8 -611 21 -820 65 -1055 8
-44 28 -161 45 -260 47 -283 110 -595 127 -636 6 -14 15 -48 18 -75 4 -27 13
-65 21 -84 7 -19 15 -53 19 -75 10 -59 58 -198 101 -292 8 -17 14 -36 14 -42
0 -16 74 -153 125 -231 16 -25 35 -56 43 -70 7 -13 28 -43 47 -66 19 -23 35
-45 35 -48 0 -11 134 -171 186 -221 43 -43 112 -105 163 -147 24 -20 134 -92
161 -106 14 -7 43 -23 65 -37 22 -13 51 -29 65 -34 14 -6 38 -17 53 -26 44
-23 147 -62 197 -75 25 -6 54 -15 65 -20 26 -11 144 -37 260 -56 50 -8 99 -19
110 -24 11 -5 65 -14 120 -20 55 -6 109 -15 120 -20 44 -19 468 -40 800 -40
399 0 1313 27 1336 39 8 5 67 14 130 21 63 7 119 16 124 20 6 4 44 13 85 20
41 7 80 16 85 20 6 5 39 13 75 20 134 23 465 155 615 245 22 13 54 32 70 41
54 30 212 152 262 202 51 51 177 214 207 267 17 31 30 53 57 95 9 14 22 42 29
63 7 22 18 51 26 65 8 15 14 34 14 42 0 8 6 26 13 40 8 14 19 48 26 75 7 27
16 54 20 60 5 5 12 28 16 50 3 22 13 54 20 70 30 70 77 252 101 395 8 47 18
94 24 105 5 11 14 61 21 110 6 50 15 95 19 100 4 6 13 62 20 125 7 63 16 120
20 125 4 6 13 69 19 140 7 72 16 139 21 150 27 58 55 686 65 1405 7 599 27
760 105 840 8 9 56 61 105 115 50 54 110 119 135 145 25 25 74 79 110 119 36
40 77 86 92 102 43 46 218 289 218 304 0 3 20 36 44 73 25 37 50 78 56 92 5
14 24 48 41 75 48 76 109 196 109 212 0 8 8 27 18 41 23 34 49 107 67 192 8
36 18 79 23 96 5 17 13 64 17 105 4 40 13 91 21 111 7 21 16 108 20 193 4 86
11 158 16 161 11 7 10 194 -2 246 -5 24 -14 99 -19 168 -13 167 -64 438 -98
517 -7 17 -13 37 -13 45 0 19 -50 178 -66 210 -8 14 -14 32 -14 38 0 21 -128
287 -171 355 -10 17 -26 44 -35 60 -31 54 -107 148 -134 163 -14 8 -44 40 -66
70 -46 64 -220 233 -276 268 -22 14 -58 45 -81 68 -23 24 -53 47 -67 51 -14 4
-32 13 -40 20 -8 8 -26 18 -40 24 -14 6 -32 15 -40 21 -8 5 -26 14 -40 20 -14
5 -32 14 -40 19 -47 30 -127 61 -182 71 -35 6 -71 16 -81 21 -72 39 -234 77
-382 89 -118 10 -467 10 -575 0 -103 -9 -267 -42 -335 -66 -57 -19 -102 -54
-127 -96 -24 -38 -23 -62 6 -105 29 -43 100 -74 207 -92 40 -6 78 -16 83 -20
6 -5 40 -12 75 -15 35 -4 80 -16 100 -27 19 -10 43 -19 51 -19 8 0 27 -6 42
-14 15 -8 42 -17 60 -21 18 -4 42 -13 53 -20 11 -7 36 -16 55 -20 19 -4 51
-16 70 -26 19 -11 42 -20 50 -20 8 -1 -8 -5 -36 -10 -28 -4 -64 -15 -80 -24
-16 -8 -35 -15 -42 -15 -8 0 -42 -13 -76 -29 -67 -31 -86 -57 -86 -118 0 -24
10 -49 34 -82 31 -41 55 -56 232 -146 203 -102 222 -116 314 -226 25 -29 54
-63 65 -74 52 -54 162 -210 199 -282 42 -83 76 -159 76 -172 0 -6 6 -22 14
-34 8 -12 19 -44 24 -72 6 -27 17 -68 26 -90 8 -22 15 -54 16 -72 0 -17 4 -34
9 -37 5 -3 13 -41 19 -83 33 -236 35 -262 24 -320 -6 -32 -14 -107 -17 -168
-4 -60 -11 -130 -16 -155 -6 -25 -15 -74 -20 -110 -6 -36 -16 -74 -23 -85 -7
-11 -16 -38 -20 -60 -4 -22 -13 -47 -21 -55 -7 -8 -15 -28 -19 -45 -4 -16 -21
-56 -37 -90 -29 -57 -43 -82 -89 -157 -11 -18 -27 -46 -36 -62 -56 -100 -238
-309 -351 -403 -63 -52 -175 -125 -218 -140 -40 -14 -184 -46 -281 -62 -107
-18 -512 -22 -944 -10 -245 7 -553 13 -685 14 -132 1 -438 6 -680 11 -541 11
-793 9 -1370 -12 -517 -19 -674 -17 -703 9 -10 9 -25 17 -33 17 -20 0 -109 46
-187 97 -129 84 -206 169 -299 328 -23 40 -73 144 -73 153 0 5 -7 15 -15 22
-8 7 -15 20 -15 29 0 9 -12 39 -25 66 -14 28 -25 58 -25 68 0 10 -6 30 -14 45
-8 15 -18 46 -22 67 -4 22 -14 51 -23 65 -31 48 -25 495 9 558 4 10 14 44 20
77 7 33 16 65 20 70 4 6 11 29 15 52 3 22 13 49 20 60 8 10 15 26 15 35 0 20
58 169 71 182 5 6 9 17 9 25 0 14 41 111 60 141 5 8 26 47 46 85 20 39 41 77
48 85 7 8 16 22 19 30 4 8 18 33 32 55 13 22 31 52 40 67 8 15 38 57 66 94 28
38 56 79 63 93 20 45 264 279 325 311 15 8 48 29 71 45 75 52 94 65 120 78
108 54 254 176 266 222 10 40 -2 117 -20 130 -9 7 -16 17 -16 23 0 6 -15 19
-32 28 -18 9 -41 23 -51 32 -13 11 -48 17 -129 20 -111 5 -112 5 -89 23 13 11
29 19 36 19 7 0 18 7 25 15 7 8 27 17 46 21 18 3 38 12 44 19 6 8 26 17 43 21
18 3 37 10 42 14 6 5 30 13 55 20 25 6 59 17 75 25 17 7 48 17 70 20 22 4 45
11 50 15 6 4 30 13 55 20 25 7 54 16 65 20 11 4 34 13 52 20 40 15 73 69 73
118 0 31 -7 45 -42 78 -26 25 -61 46 -88 53 -25 7 -50 17 -56 22 -5 4 -47 11
-92 15 -46 4 -85 11 -88 15 -7 12 -311 12 -318 0z m356 -141 c115 -8 168 -22
168 -42 0 -9 -72 -29 -190 -53 -231 -48 -283 -68 -415 -159 -16 -11 -55 -37
-86 -57 -108 -72 -133 -130 -86 -199 30 -45 73 -58 197 -60 186 -2 266 -50
154 -92 -29 -11 -81 -44 -116 -73 -35 -29 -88 -66 -118 -83 -119 -64 -130 -73
-347 -277 -83 -78 -123 -125 -262 -310 -242 -322 -369 -578 -426 -860 -35
-178 -48 -314 -49 -525 -1 -302 29 -456 108 -564 13 -17 31 -51 40 -76 46
-119 141 -267 259 -402 90 -102 238 -203 481 -326 64 -33 548 -43 841 -17 161
13 353 22 1003 45 330 12 1242 -2 1677 -25 603 -32 993 -8 1143 69 17 9 39 16
49 16 45 0 204 105 330 218 72 63 218 224 267 292 186 261 285 479 342 755 25
124 44 310 44 438 0 200 -54 546 -106 681 -19 48 -150 265 -222 365 -109 152
-292 354 -392 434 -79 63 -116 83 -171 92 -103 18 -139 35 -139 67 0 35 61 51
222 57 178 7 186 11 166 87 -22 85 -102 151 -268 218 -221 91 -430 154 -584
175 -115 16 -103 30 47 55 56 9 136 24 178 32 99 18 388 19 540 0 190 -24 387
-78 514 -140 164 -81 341 -191 458 -284 192 -154 556 -700 656 -985 85 -242
131 -581 131 -964 0 -291 -14 -391 -97 -673 -23 -81 -115 -302 -167 -405 -102
-200 -264 -424 -416 -575 -59 -58 -139 -141 -179 -185 -40 -44 -105 -108 -144
-142 -81 -71 -83 -73 -108 -161 -39 -132 -59 -324 -69 -637 -5 -165 -14 -352
-20 -415 -12 -142 -33 -718 -26 -729 3 -5 1 -48 -4 -97 -5 -49 -14 -132 -20
-184 -5 -52 -17 -158 -26 -235 -8 -77 -24 -223 -35 -325 -18 -180 -62 -418
-92 -510 -9 -25 -30 -105 -47 -179 -65 -272 -187 -559 -314 -740 -101 -143
-255 -303 -401 -419 -85 -66 -327 -159 -555 -211 -74 -17 -151 -35 -170 -41
-30 -7 -375 -59 -505 -75 -65 -8 -369 -34 -518 -45 -87 -6 -279 -6 -527 0
-330 8 -395 12 -422 26 -23 12 -45 15 -86 10 -29 -3 -70 -2 -90 3 -20 5 -89
15 -152 21 -63 6 -168 20 -235 30 -66 11 -151 24 -190 30 -116 18 -333 70
-445 107 -200 67 -421 197 -564 333 -214 203 -361 454 -474 810 -51 162 -69
232 -106 415 -8 44 -20 100 -26 125 -15 67 -59 327 -81 475 -78 528 -127 1206
-132 1825 l-3 405 -27 80 c-20 60 -38 94 -75 135 -26 30 -92 110 -146 178 -55
68 -129 154 -165 191 -213 221 -400 494 -478 699 -60 160 -123 349 -123 375 0
15 -9 69 -20 120 -22 107 -46 318 -56 497 -15 292 51 677 166 965 53 133 175
376 225 450 95 139 324 382 505 534 248 210 453 353 609 424 88 40 299 111
441 148 224 59 311 67 552 49z"/>
<path d="M5945 3015 c-96 -21 -202 -63 -325 -128 -176 -94 -278 -206 -358
-397 -15 -34 -27 -91 -33 -150 -4 -52 -13 -130 -18 -173 -8 -70 -4 -136 14
-255 8 -53 74 -240 116 -332 35 -74 53 -98 147 -190 59 -58 132 -120 163 -138
31 -18 62 -39 69 -47 6 -8 58 -28 113 -45 56 -17 123 -40 149 -52 43 -19 52
-20 165 -9 65 6 156 21 203 32 210 51 464 230 500 353 6 22 20 55 31 71 35 58
88 240 104 361 15 102 15 136 5 242 -7 67 -19 146 -27 175 -8 28 -19 71 -24
95 -35 167 -113 295 -235 383 -46 33 -102 66 -126 74 -24 9 -68 28 -98 44 -30
15 -77 34 -105 41 -27 7 -75 20 -105 30 -76 24 -248 32 -325 15z"/>
<path d="M2723 2936 c-67 -11 -128 -27 -135 -33 -6 -7 -16 -13 -21 -13 -4 0
-32 -11 -60 -24 -29 -13 -95 -44 -147 -69 -113 -52 -182 -111 -247 -211 -76
-117 -96 -169 -99 -260 -2 -44 -11 -105 -21 -135 -26 -85 -23 -318 5 -432 24
-99 74 -229 104 -273 73 -105 256 -264 378 -327 34 -18 65 -39 67 -46 13 -32
75 -47 256 -59 87 -6 140 0 277 32 173 41 352 140 392 217 10 21 47 66 81 100
77 77 140 195 193 362 36 114 38 127 37 250 0 192 -38 321 -151 510 -66 111
-121 171 -206 227 -22 15 -66 45 -96 66 -67 48 -154 92 -238 121 -80 27 -202
26 -369 -3z"/>
</g>
</svg>
